<?xml version="1.0" encoding="utf-8"?>
<svg viewBox="200.04660034179688 515.58544921875 551.2000732421875 54.9000244140625" width="551.2000732421875" height="54.9000244140625" xmlns="http://www.w3.org/2000/svg"><g transform="matrix(1, 0, 0, 1, 58.54657363891596, -10.014543533325195)">
		<path class="st5" d="M147.7,558.5c0,0,37.7,7.6,70.2,1.4l1.5-2.8l-3.1-1c0,0-14.1,4.7-62-0.6L147.7,558.5z" style="fill: rgb(204, 204, 204); opacity: 1;"/>
		<path class="st5" d="M148.1,556.1c0,0,38-14.1,71.6,0.7l1.7-4.6c0,0-33.4-16.3-79.9,1.7l6.5,2.6" style="fill: rgb(204, 204, 204); opacity: 1;"/>
		<path class="st5" d="M204.4,579.3c0,0,11.7-0.3,15.7-15c4-14.7,5.7-17,10-15.8c0,0,1.7,0-0.4,5.2&#10;&#9;&#9;&#9;C227.8,558.9,224.2,580,204.4,579.3z" style="fill: rgb(204, 204, 204); opacity: 1;"/>
		<path class="st5" d="M227.9,565.2c0,0,5.1-13.1,5.3-16.1c0,0,0.6-2,2.7-1.8c2.1,0.2,1.7,1.6,0.1,6.6c-1.6,4.9-3.1,15.4-8,13.7&#10;&#9;&#9;&#9;C228,567.6,227.2,567.2,227.9,565.2z" style="fill: rgb(204, 204, 204); opacity: 1;"/>
		<path class="st5" d="M234.6,565.4c0,0,4.7-13.4,4.7-16.4c0,0,0.5-2,2.9-2c2.3,0.1,2,1.5,0.6,6.5c-1.4,5.1-2.3,15.6-7.9,14.3&#10;&#9;&#9;&#9;C234.9,567.8,234,567.5,234.6,565.4z" style="fill: rgb(204, 204, 204); opacity: 1;"/>
		<path class="st5" d="M242.2,564.9c0,0,3.8-25.7,17.3-34.3c0,0,6.1-3.7,10.9-2c0,0-15.8-2.2-21.6,29.5c0,0-1.4,9.5-4.5,10&#10;&#9;&#9;&#9;C241.1,568.5,241.4,567.5,242.2,564.9z" style="fill: rgb(204, 204, 204); opacity: 1;"/>
		<path class="st5" d="M196.9,538.7c0,0,5.5-3.6,11.9,1.4c6.4,5,10.4,10.4,10.4,10.4s4.2,1.9,4.2-1.2c0-3.1-12-11.4-13.5-11.6&#10;&#9;&#9;&#9;C210,537.7,202.3,533.9,196.9,538.7z" style="fill: rgb(204, 204, 204); opacity: 1;"/>
		<path class="st5" d="M250.5,566.6c0,0,10.2,13.1,24.4,9.9c0,0-10.4,0.7-19.4-12.1c0,0-2.6-3.9-4.3-2.9&#10;&#9;&#9;&#9;C249.4,562.5,248.7,565,250.5,566.6z" style="fill: rgb(204, 204, 204); opacity: 1;"/>
		<path class="st5" d="M251.3,560.8c0,0-1-2.8,0.8-3.7c0,0,19.1,6.7,33.3,5.5v5.3C285.4,567.9,262.8,567.3,251.3,560.8z" style="fill: rgb(204, 204, 204); opacity: 1;"/>
		<path class="st5" d="M253.9,556.6c0,0,16.1-6.8,31.4-5.2v-4.9c0,0-24.4-1.7-32.4,4.9c0,0-3.7,6,0.8,5.5" style="fill: rgb(204, 204, 204); opacity: 1;"/>
		<path class="st5" d="M364.9,579c0,0-11.7-0.3-15.7-15c-4-14.7-5.7-17-10-15.8c0,0-1.7,0,0.4,5.2&#10;&#9;&#9;&#9;C341.6,558.7,345.1,579.7,364.9,579z" style="fill: rgb(204, 204, 204); opacity: 1;"/>
		<path class="st5" d="M341.3,565.2c0,0-5.1-13.1-5.3-16.1c0,0-0.6-2-2.7-1.8c-2.1,0.2-1.7,1.6-0.1,6.6c1.6,4.9,3.1,15.4,8,13.7&#10;&#9;&#9;&#9;C341.2,567.6,342,567.2,341.3,565.2z" style="fill: rgb(204, 204, 204); opacity: 1;"/>
		<path class="st5" d="M334.2,565.7c0,0-4.7-13.4-4.7-16.4c0,0-0.5-2-2.9-2c-2.3,0.1-2,1.5-0.6,6.5c1.4,5.1,2.3,15.6,7.9,14.3&#10;&#9;&#9;&#9;C333.9,568.1,334.9,567.8,334.2,565.7z" style="fill: rgb(204, 204, 204); opacity: 1;"/>
		<path class="st5" d="M326,564.1c0,0-3.8-25.7-17.3-34.3c0,0-6.1-3.7-10.9-2c0,0,15.8-2.2,21.6,29.5c0,0,1.4,9.6,4.5,10&#10;&#9;&#9;&#9;C327.1,567.8,326.8,566.8,326,564.1z" style="fill: rgb(204, 204, 204); opacity: 1;"/>
		<path class="st5" d="M371.1,538.7c0,0-5.5-3.6-11.9,1.4c-6.4,5-10.4,10.4-10.4,10.4s-4.2,1.9-4.2-1.2c0-3.1,12-11.4,13.5-11.6&#10;&#9;&#9;&#9;C358.1,537.7,365.8,533.9,371.1,538.7z" style="fill: rgb(204, 204, 204); opacity: 1;"/>
		<path class="st5" d="M319.6,566.6c0,0-10.2,13.1-24.4,9.9c0,0,10.4,0.7,19.4-12.1c0,0,2.6-3.9,4.3-2.9&#10;&#9;&#9;&#9;C320.6,562.5,321.4,565,319.6,566.6z" style="fill: rgb(204, 204, 204); opacity: 1;"/>
		<path class="st5" d="M318.8,560.8c0,0,1-2.8-0.8-3.7c0,0-19.1,6.7-33.3,5.5v5.3C284.7,567.9,307.2,567.3,318.8,560.8z" style="fill: rgb(204, 204, 204); opacity: 1;"/>
		<path class="st5" d="M316.2,556.6c0,0-16.1-6.8-31.4-5.2v-4.9c0,0,24.4-1.7,32.4,4.9c0,0,3.7,6-0.8,5.5" style="fill: rgb(204, 204, 204); opacity: 1;"/>
		<path class="st5" d="M349.7,561.6c0,0-1-2.8,0.8-3.7c0,0,19.1,6.7,33.3,5.5v5.3C383.8,568.7,361.3,568,349.7,561.6z" style="fill: rgb(204, 204, 204); opacity: 1;"/>
		<path class="st5" d="M352.3,557.3c0,0,16.1-6.8,31.4-5.2v-4.9c0,0-24.4-1.7-32.4,4.9c0,0-3.7,6,0.8,5.5" style="fill: rgb(204, 204, 204); opacity: 1;"/>
		<path class="st5" d="M465.9,578.8c0,0-11.7-0.3-15.7-15c-4-14.7-5.7-17-10-15.8c0,0-1.7,0,0.4,5.2&#10;&#9;&#9;&#9;C442.5,558.5,446.1,579.5,465.9,578.8z" style="fill: rgb(204, 204, 204); opacity: 1;"/>
		<path class="st5" d="M442.3,565c0,0-5.1-13.1-5.3-16.1c0,0-0.6-2-2.7-1.8c-2.1,0.2-1.7,1.6-0.1,6.6c1.6,4.9,3.1,15.4,8,13.7&#10;&#9;&#9;&#9;C442.2,567.4,443,567,442.3,565z" style="fill: rgb(204, 204, 204); opacity: 1;"/>
		<path class="st5" d="M436.2,565.5c0,0-4.7-13.4-4.7-16.4c0,0-0.5-2-2.9-2c-2.3,0.1-2,1.5-0.6,6.5c1.4,5.1,2.3,15.6,7.9,14.3&#10;&#9;&#9;&#9;C435.9,567.9,436.8,567.6,436.2,565.5z" style="fill: rgb(204, 204, 204); opacity: 1;"/>
		<path class="st5" d="M429,564.9c0,0-3.8-25.7-17.3-34.3c0,0-6.1-3.7-10.9-2c0,0,15.8-2.2,21.6,29.5c0,0,1.4,9.6,4.5,10&#10;&#9;&#9;&#9;C430,568.6,429.7,567.6,429,564.9z" style="fill: rgb(204, 204, 204); opacity: 1;"/>
		<path class="st5" d="M472.1,538.5c0,0-5.5-3.6-11.9,1.4c-6.4,5-10.4,10.4-10.4,10.4s-4.2,1.9-4.2-1.2c0-3.1,12-11.4,13.5-11.6&#10;&#9;&#9;&#9;C459.1,537.5,466.7,533.7,472.1,538.5z" style="fill: rgb(204, 204, 204); opacity: 1;"/>
		<path class="st5" d="M422.6,567.4c0,0-10.2,13.1-24.4,9.8c0,0,10.4,0.7,19.4-12.1c0,0,2.6-3.9,4.3-2.9&#10;&#9;&#9;&#9;C423.6,563.3,424.3,565.8,422.6,567.4z" style="fill: rgb(204, 204, 204); opacity: 1;"/>
		<path class="st5" d="M417.7,561.6c0,0,1-2.8-0.8-3.7c0,0-19.1,6.7-33.3,5.5v5.3C383.6,568.7,406.2,568.1,417.7,561.6z" style="fill: rgb(204, 204, 204); opacity: 1;"/>
		<path class="st5" d="M415.1,557.3c0,0-16.1-6.8-31.4-5.2v-4.9c0,0,24.4-1.7,32.4,4.9c0,0,3.7,6-0.8,5.5" style="fill: rgb(204, 204, 204); opacity: 1;"/>
		<path class="st5" d="M451.7,561.6c0,0-1-2.8,0.8-3.7c0,0,19.1,6.7,33.3,5.5v5.3C485.8,568.7,463.2,568,451.7,561.6z" style="fill: rgb(204, 204, 204); opacity: 1;"/>
		<path class="st5" d="M454.3,557.3c0,0,16.1-6.8,31.4-5.2v-4.9c0,0-24.4-1.7-32.4,4.9c0,0-3.7,6,0.8,5.5" style="fill: rgb(204, 204, 204); opacity: 1;"/>
		<path class="st5" d="M568.8,578.8c0,0-11.7-0.3-15.7-15c-4-14.7-5.7-17-10-15.8c0,0-1.7,0,0.4,5.2&#10;&#9;&#9;&#9;C545.5,558.5,549,579.5,568.8,578.8z" style="fill: rgb(204, 204, 204); opacity: 1;"/>
		<path class="st5" d="M545.2,565c0,0-5.1-13.1-5.3-16.1c0,0-0.6-2-2.7-1.8c-2.1,0.2-1.7,1.6-0.1,6.6c1.6,4.9,3.1,15.4,8,13.7&#10;&#9;&#9;&#9;C545.1,567.4,546,567,545.2,565z" style="fill: rgb(204, 204, 204); opacity: 1;"/>
		<path class="st5" d="M538.1,565.5c0,0-4.7-13.4-4.7-16.4c0,0-0.5-2-2.9-2c-2.3,0.1-2,1.5-0.6,6.5c1.4,5.1,2.3,15.6,7.9,14.3&#10;&#9;&#9;&#9;C537.9,567.9,538.8,567.6,538.1,565.5z" style="fill: rgb(204, 204, 204); opacity: 1;"/>
		<path class="st5" d="M529.9,564.9c0,0-3.8-25.7-17.3-34.3c0,0-6.1-3.7-10.9-2c0,0,15.8-2.2,21.6,29.5c0,0,1.4,9.6,4.5,10&#10;&#9;&#9;&#9;C531,568.6,530.7,567.6,529.9,564.9z" style="fill: rgb(204, 204, 204); opacity: 1;"/>
		<path class="st5" d="M575,538.5c0,0-5.5-3.6-11.9,1.4c-6.4,5-10.4,10.4-10.4,10.4s-4.2,1.9-4.2-1.2c0-3.1,12-11.4,13.5-11.6&#10;&#9;&#9;&#9;C562,537.5,569.7,533.7,575,538.5z" style="fill: rgb(204, 204, 204); opacity: 1;"/>
		<path class="st5" d="M523.5,567.4c0,0-10.2,13.1-24.4,9.8c0,0,10.4,0.7,19.4-12.1c0,0,2.6-3.9,4.3-2.9&#10;&#9;&#9;&#9;C524.5,563.3,525.3,565.8,523.5,567.4z" style="fill: rgb(204, 204, 204); opacity: 1;"/>
		<path class="st5" d="M519.7,561.6c0,0,1-2.8-0.8-3.7c0,0-19.1,6.7-33.3,5.5v5.3C485.6,568.7,508.1,568.1,519.7,561.6z" style="fill: rgb(204, 204, 204); opacity: 1;"/>
		<path class="st5" d="M517.1,557.3c0,0-16.1-6.8-31.4-5.2v-4.9c0,0,24.4-1.7,32.4,4.9c0,0,3.7,6-0.8,5.5" style="fill: rgb(204, 204, 204); opacity: 1;"/>
		<path class="st5" d="M556.4,561.6c0,0-1-2.8,0.8-3.7c0,0,19.1,6.7,33.3,5.5v5.3C590.5,568.7,567.9,568,556.4,561.6z" style="fill: rgb(204, 204, 204); opacity: 1;"/>
		<path class="st5" d="M559,557.3c0,0,16.1-6.8,31.4-5.2v-4.9c0,0-24.4-1.7-32.4,4.9c0,0-3.7,6,0.8,5.5" style="fill: rgb(204, 204, 204); opacity: 1;"/>
		<path class="st5" d="M673.5,578.8c0,0-11.7-0.3-15.7-15c-4-14.7-5.7-17-10-15.8c0,0-1.7,0,0.4,5.2&#10;&#9;&#9;&#9;C650.2,558.5,653.7,579.5,673.5,578.8z" style="fill: rgb(204, 204, 204); opacity: 1;"/>
		<path class="st5" d="M649.9,565c0,0-5.1-13.1-5.3-16.1c0,0-0.6-2-2.7-1.8c-2.1,0.2-1.7,1.6-0.1,6.6c1.6,4.9,3.1,15.4,8,13.7&#10;&#9;&#9;&#9;C649.8,567.4,650.6,567,649.9,565z" style="fill: rgb(204, 204, 204); opacity: 1;"/>
		<path class="st5" d="M642.8,565.5c0,0-4.7-13.4-4.7-16.4c0,0-0.5-2-2.9-2c-2.3,0.1-2,1.5-0.6,6.5c1.4,5.1,2.3,15.6,7.9,14.3&#10;&#9;&#9;&#9;C642.5,567.9,643.5,567.6,642.8,565.5z" style="fill: rgb(204, 204, 204); opacity: 1;"/>
		<path class="st5" d="M634.6,564.9c0,0-3.8-25.7-17.3-34.3c0,0-6.1-3.7-10.9-2c0,0,15.8-2.2,21.6,29.5c0,0,1.4,9.6,4.5,10&#10;&#9;&#9;&#9;C635.7,568.6,635.4,567.6,634.6,564.9z" style="fill: rgb(204, 204, 204); opacity: 1;"/>
		<path class="st5" d="M679.7,538.5c0,0-5.5-3.6-11.9,1.4c-6.4,5-10.4,10.4-10.4,10.4s-4.2,1.9-4.2-1.2c0-3.1,12-11.4,13.5-11.6&#10;&#9;&#9;&#9;C666.7,537.5,674.4,533.7,679.7,538.5z" style="fill: rgb(204, 204, 204); opacity: 1;"/>
		<path class="st5" d="M628.2,567.4c0,0-10.2,13.1-24.4,9.8c0,0,10.4,0.7,19.4-12.1c0,0,2.6-3.9,4.3-2.9&#10;&#9;&#9;&#9;C629.2,563.3,630,565.8,628.2,567.4z" style="fill: rgb(204, 204, 204); opacity: 1;"/>
		<path class="st5" d="M624.4,561.6c0,0,1-2.8-0.8-3.7c0,0-19.1,6.7-33.3,5.5v5.3C590.3,568.7,612.8,568.1,624.4,561.6z" style="fill: rgb(204, 204, 204); opacity: 1;"/>
		<path class="st5" d="M621.8,557.3c0,0-16.1-6.8-31.4-5.2v-4.9c0,0,24.4-1.7,32.4,4.9c0,0,3.7,6-0.8,5.5" style="fill: rgb(204, 204, 204); opacity: 1;"/>
		<path class="st5" d="M658.6,561.6c0,0-1-2.8,0.8-3.7c0,0,19.1,6.7,33.3,5.5v5.3C692.7,568.7,670.1,568,658.6,561.6z" style="fill: rgb(204, 204, 204); opacity: 1;"/>
		<path class="st5" d="M661.2,557.3c0,0,16.1-6.8,31.4-5.2v-4.9c0,0-24.4-1.7-32.4,4.9c0,0-3.7,6,0.8,5.5" style="fill: rgb(204, 204, 204); opacity: 1;"/>
	</g></svg>